<?xml version="1.0" encoding="UTF-8"?>
<svg id="_レイヤー_1" data-name="レイヤー_1" xmlns="http://www.w3.org/2000/svg" version="1.1" viewBox="0 0 300 60">
  <!-- Generator: Adobe Illustrator 30.0.0, SVG Export Plug-In . SVG Version: 2.1.1 Build 123)  -->
  <text/>
  <g>
    <path d="M103.49,43.68c-3.96,0-7.06-1.2-9.31-3.59s-3.37-5.76-3.37-10.11,1.14-7.62,3.42-10.07,5.37-3.67,9.27-3.67c2.8,0,5.72.79,8.75,2.37v3.85h-.25c-2.75-2.31-5.66-3.46-8.72-3.46-2.79,0-5,.97-6.63,2.91s-2.44,4.63-2.44,8.08.83,6.1,2.49,8.02,3.86,2.89,6.62,2.89c1.49,0,2.91-.24,4.25-.71s2.82-1.4,4.43-2.79h.25v3.87c-2.25,1.07-4,1.73-5.25,2s-2.42.4-3.52.4Z"/>
    <path d="M124.07,43.75c-2.82,0-5.06-.93-6.7-2.8s-2.46-4.42-2.46-7.66.83-5.79,2.48-7.68,3.88-2.83,6.68-2.83,5.03.94,6.68,2.81,2.48,4.44,2.48,7.7-.82,5.82-2.47,7.67-3.88,2.79-6.69,2.79ZM124.07,25.42c-1.91,0-3.38.67-4.41,2.02s-1.55,3.3-1.55,5.85.52,4.45,1.55,5.8,2.5,2.02,4.41,2.02,3.38-.67,4.41-2.02,1.55-3.28,1.55-5.8c0-5.25-1.99-7.88-5.96-7.88Z"/>
    <path d="M154.03,43.21h-3.09v-2.39c-2.4,1.96-4.71,2.94-6.91,2.94-2.07,0-3.66-.64-4.76-1.92s-1.65-3.12-1.65-5.51v-12.97h3.09v11.16c0,2.55.34,4.25,1.03,5.08s1.8,1.25,3.35,1.25c1.83,0,3.78-.85,5.85-2.55v-14.94h3.09v19.86Z"/>
    <path d="M160,43.21v-19.86h3.09v3.06c2.48-2.04,4.78-3.06,6.87-3.06.74,0,1.48.06,2.23.18v3.23h-.12c-.97-.23-1.96-.35-2.95-.35-1.99,0-4,.84-6.03,2.53v14.27h-3.09Z"/>
    <path d="M180.48,43.68c-2.48,0-4.82-.54-7-1.63v-3.59h.12c2.37,1.76,4.72,2.64,7.05,2.64,3.27,0,4.9-1.03,4.9-3.09,0-.81-.22-1.44-.65-1.88s-1.34-.83-2.71-1.14c-1.15-.22-2.47-.51-3.96-.86s-2.64-.97-3.45-1.85-1.22-2.02-1.22-3.4c0-1.76.71-3.2,2.14-4.32s3.34-1.68,5.73-1.68,4.62.48,6.49,1.44v3.41h-.12c-2.05-1.51-4.22-2.27-6.52-2.27-1.42,0-2.54.26-3.36.78s-1.23,1.25-1.23,2.17c0,.82.22,1.45.66,1.88s1.32.81,2.63,1.14l3.88.84c1.61.35,2.81.97,3.62,1.85s1.21,2.03,1.21,3.44c0,1.82-.74,3.29-2.23,4.42s-3.49,1.7-5.99,1.7Z"/>
    <path d="M201.77,43.67c-3.3,0-5.87-.89-7.69-2.68s-2.73-4.32-2.73-7.58.87-5.83,2.62-7.74,4.06-2.87,6.94-2.87c2.62,0,4.66.79,6.11,2.36s2.17,3.81,2.17,6.71v1.71h-14.68c0,2.39.65,4.23,1.94,5.51s3.08,1.92,5.37,1.92,4.55-.79,6.82-2.37h.14v3.36c-2.82,1.12-5.16,1.69-7.01,1.69ZM194.51,31.22h11.65c-.09-3.95-1.9-5.92-5.43-5.92-1.78,0-3.22.53-4.32,1.58s-1.73,2.5-1.9,4.34Z"/>
  </g>
</svg>