<?xml version="1.0" encoding="UTF-8"?>
<svg id="_レイヤー_1" data-name="レイヤー_1" xmlns="http://www.w3.org/2000/svg" version="1.1" viewBox="0 0 300 60">
  <!-- Generator: Adobe Illustrator 30.0.0, SVG Export Plug-In . SVG Version: 2.1.1 Build 123)  -->
  <path d="M105.04,43.83v-26.49h6.38c3.73,0,6.66.49,8.79,1.46s3.82,2.46,5.05,4.46,1.85,4.45,1.85,7.36c0,3.61-1.17,6.71-3.51,9.32s-6.38,3.9-12.12,3.9h-6.45ZM108.3,20.12v20.94h3.41c4.18,0,7.22-.88,9.12-2.65s2.85-4.38,2.85-7.84-.96-5.84-2.88-7.68-4.95-2.76-9.09-2.76h-3.41Z"/>
  <path d="M131.72,43.83v-19.86h3.09v3.06c2.48-2.04,4.78-3.06,6.87-3.06.74,0,1.48.06,2.23.18v3.23h-.12c-.97-.23-1.96-.35-2.95-.35-1.99,0-4,.84-6.03,2.53v14.27h-3.09Z"/>
  <path d="M149.91,20h-3.5v-3.22h3.5v3.22ZM149.72,43.83h-3.09v-19.86h3.09v19.86Z"/>
  <path d="M172.15,43.83h-3.09v-11.13c0-2.58-.34-4.29-1.02-5.12s-1.8-1.26-3.36-1.26c-1.84,0-3.79.86-5.85,2.57v14.94h-3.09v-19.86h3.09v2.39c2.33-1.97,4.63-2.95,6.91-2.95,2.05,0,3.63.64,4.75,1.92s1.67,3.14,1.67,5.56v12.94Z"/>
  <path d="M194.96,43.83h-4.1l-7.95-8.77-1.85,1.78v7h-3.09v-27.67h3.09v17.58l9.3-9.77h3.87l-9.03,9.14,9.76,10.72Z"/>
</svg>