<?xml version="1.0" encoding="UTF-8"?>
<svg id="_レイヤー_1" data-name="レイヤー_1" xmlns="http://www.w3.org/2000/svg" version="1.1" viewBox="0 0 300 60">
  <!-- Generator: Adobe Illustrator 30.0.0, SVG Export Plug-In . SVG Version: 2.1.1 Build 123)  -->
  <path d="M127.57,19.92h-13.45v7.91h11.94v2.85h-11.94v12.88h-3.27v-26.49h16.72v2.85Z"/>
  <path d="M138.17,44.11c-2.82,0-5.06-.93-6.7-2.8s-2.46-4.42-2.46-7.66.83-5.79,2.48-7.68,3.88-2.83,6.68-2.83,5.03.94,6.68,2.81,2.48,4.44,2.48,7.7-.82,5.82-2.47,7.67-3.88,2.79-6.69,2.79ZM138.17,25.77c-1.91,0-3.38.67-4.41,2.02s-1.55,3.3-1.55,5.85.52,4.45,1.55,5.8,2.5,2.02,4.41,2.02,3.38-.67,4.41-2.02,1.55-3.28,1.55-5.8c0-5.25-1.99-7.88-5.96-7.88Z"/>
  <path d="M159.54,44.11c-2.82,0-5.06-.93-6.7-2.8s-2.46-4.42-2.46-7.66.83-5.79,2.48-7.68,3.88-2.83,6.68-2.83,5.03.94,6.68,2.81,2.48,4.44,2.48,7.7-.82,5.82-2.47,7.67-3.88,2.79-6.69,2.79ZM159.54,25.77c-1.91,0-3.38.67-4.41,2.02s-1.55,3.3-1.55,5.85.52,4.45,1.55,5.8,2.5,2.02,4.41,2.02,3.38-.67,4.41-2.02,1.55-3.28,1.55-5.8c0-5.25-1.99-7.88-5.96-7.88Z"/>
  <path d="M186.05,43.56v-2.2c-2.26,1.83-4.45,2.74-6.57,2.74-2.34,0-4.21-.92-5.6-2.76s-2.08-4.35-2.08-7.54.84-5.72,2.51-7.7,3.74-2.97,6.21-2.97c1.72,0,3.57.52,5.54,1.56v-8.81h3.09v27.67h-3.09ZM186.05,38.85v-11.76c-1.73-.8-3.36-1.2-4.87-1.2-1.95,0-3.46.68-4.55,2.05s-1.63,3.28-1.63,5.76c0,4.99,1.79,7.49,5.36,7.49,2,0,3.9-.78,5.7-2.34Z"/>
</svg>