<?xml version="1.0" encoding="UTF-8"?>
<svg id="_レイヤー_1" data-name="レイヤー_1" xmlns="http://www.w3.org/2000/svg" version="1.1" viewBox="0 0 300 60">
  <!-- Generator: Adobe Illustrator 30.0.0, SVG Export Plug-In . SVG Version: 2.1.1 Build 123)  -->
  <path d="M96.06,34.3l-14.91,1.44.98,10.74-3.09.28-.95-10.72-15.57,1.51-.26-2.57,15.63-1.51-.77-8.79-13.34,1.09-.14-2.55,13.27-1.07-.53-5.96,2.99-.35.54,6.06,12.74-1.04.25,2.53-12.76,1.04.79,8.74,14.89-1.46.25,2.58ZM91.17,19.08l-2.02.9c-.84-1.91-1.69-3.55-2.55-4.92l1.9-.86c1.04,1.62,1.93,3.25,2.67,4.89ZM96.29,18l-2.02.83c-.8-1.86-1.63-3.49-2.51-4.87l1.83-.86c.95,1.46,1.85,3.1,2.71,4.9Z"/>
  <path d="M114.2,46.44l-2.83.46-3.45-17-6.17.88-.47-2.3,6.17-.84-1.2-5.92,2.78-.4,1.21,5.94,16.82-2.27,1.51,1.27c-.87,2.31-2.09,4.49-3.67,6.53s-3.21,3.73-4.91,5.05l-1.65-1.69c1.36-1.21,2.65-2.62,3.88-4.25s2.11-3.08,2.65-4.37l-14.15,1.99,3.48,16.93Z"/>
  <path d="M165.72,26.56c-.13,2.11-.32,3.74-.56,4.9s-.88,2.78-1.89,4.86c-1.01,2.08-2.48,3.83-4.39,5.26s-4.29,2.53-7.14,3.32-6.21,1.24-10.07,1.34l-.51-2.55c6.67-.15,11.74-1.42,15.21-3.81s5.52-6,6.14-10.85h-25.52v-2.48h28.72ZM164.51,20.34h-26.1v-2.46h26.1v2.46Z"/>
  <path d="M178.98,34.88h-3.06v-17.75h3.06v17.75ZM199.42,30.55c0,2.75-.65,5.25-1.95,7.5-1.3,2.24-3.45,4.08-6.46,5.51s-6.91,2.3-11.72,2.62l-.69-2.55c6.19-.49,10.69-1.86,13.52-4.1s4.24-5.46,4.24-9.67v-13.34h3.06v14.03Z"/>
  <path d="M237.74,33.03h-29.07v-2.6h29.07v2.6Z"/>
</svg>