<?xml version="1.0" encoding="UTF-8"?>
<svg id="_レイヤー_1" data-name="レイヤー_1" xmlns="http://www.w3.org/2000/svg" version="1.1" viewBox="0 0 300 60">
  <!-- Generator: Adobe Illustrator 30.0.0, SVG Export Plug-In . SVG Version: 2.1.1 Build 123)  -->
  <path d="M108.14,15.7c-.91,5.12-2.99,10.01-6.24,14.68,3.56,2.43,6.65,4.77,9.26,7.03l-2.3,2.2c-1.63-1.62-4.54-3.91-8.74-6.89-4.89,5.95-10.89,9.94-18,11.97l-1.23-2.44c6.47-1.88,12.08-5.62,16.82-11.25-2.7-1.88-6.72-4.22-12.08-7.05l1.69-2.13c4.75,2.45,8.78,4.75,12.11,6.91,2.88-4.16,4.78-8.63,5.68-13.41l3.02.39Z"/>
  <path d="M149.08,42.59h-32.87v-2.81h32.87v2.81ZM146.88,21.85h-28.12v-2.58h28.12v2.58Z"/>
  <path d="M182.26,43.97h-28.79v-2.3h17.42l2.13-16.14h-15.52v-2.23h18.65l-2.48,18.37h8.6v2.3Z"/>
  <path d="M219.11,31.75h-29.07v-2.6h29.07v2.6Z"/>
</svg>