<?xml version="1.0" encoding="UTF-8"?>
<svg id="_レイヤー_1" data-name="レイヤー_1" xmlns="http://www.w3.org/2000/svg" version="1.1" viewBox="0 0 300 60">
  <!-- Generator: Adobe Illustrator 30.0.0, SVG Export Plug-In . SVG Version: 2.1.1 Build 123)  -->
  <path d="M124.85,33.82l-1.85,2.44c-2.44-1.63-5.35-3.23-8.74-4.8s-6.4-2.75-9.05-3.55v18.65h-3.13V15.79h3.16v9.42c6.95,2.09,13.48,4.96,19.6,8.61Z"/>
  <path d="M138.26,34.75l-2.76.9c-1-3.26-2.41-6.6-4.25-10.04l2.44-.91c1.01,1.76,1.72,3.1,2.14,4.03s1.23,2.94,2.43,6.03ZM156.73,24.1c-.88,7.31-3.06,12.7-6.55,16.17s-8.29,5.62-14.41,6.47l-.79-2.34c6.68-.96,11.39-3.26,14.13-6.91s4.32-8.2,4.73-13.66l2.88.26ZM146.8,33.07l-2.78.93c-.81-2.86-2.23-6.21-4.25-10.05l2.46-.97c1.32,2.45,2.15,4.1,2.48,4.95s1.03,2.56,2.09,5.14Z"/>
  <path d="M192.17,20.34c-.43,5.33-1.5,9.7-3.19,13.1s-4.5,6.25-8.41,8.54-8.75,3.74-14.5,4.32l-.72-2.65c6.13-.59,11.48-2.5,16.06-5.73s7.12-8.8,7.62-16.7h-24.08v-2.6h25.54c-.23-.48-.36-1.03-.37-1.63,0-1.03.38-1.9,1.13-2.62s1.7-1.08,2.82-1.11c1.05,0,1.95.36,2.7,1.07s1.13,1.62,1.15,2.71c0,1.04-.38,1.92-1.12,2.64s-1.66,1.08-2.72,1.11c-.7,0-1.34-.15-1.9-.44ZM194,19.53c.68,0,1.27-.24,1.78-.72s.76-1.07.76-1.76-.25-1.31-.75-1.81-1.1-.76-1.8-.76-1.27.25-1.78.75-.76,1.09-.76,1.77.25,1.27.75,1.78,1.09.76,1.78.76Z"/>
</svg>