<?xml version="1.0" encoding="UTF-8"?>
<svg id="_レイヤー_1" data-name="レイヤー_1" xmlns="http://www.w3.org/2000/svg" version="1.1" viewBox="0 0 300 60">
  <!-- Generator: Adobe Illustrator 30.0.0, SVG Export Plug-In . SVG Version: 2.1.1 Build 123)  -->
  <text/>
  <g>
    <path d="M59.38,44.6v-2.32h26.47v-6.01h-25.8v-2.29h25.8v-5.73h-26.14v-2.16h13.08v-11.87h2.78v11.87h13.08v19.76h-2.79v-1.25h-26.47ZM64.45,24.44c-.93-2.13-2.3-4.65-4.11-7.56l2.46-1.07c1.5,2.32,2.91,4.83,4.24,7.52l-2.58,1.11ZM83.4,24.58l-2.43-.98c1.73-2.34,3.28-5.02,4.64-8.03l2.81.98c-2.18,3.87-3.86,6.54-5.03,8.03Z"/>
    <path d="M99.18,20.08v6.79c0,4.18-.42,7.87-1.27,11.07s-2.02,5.77-3.52,7.74l-1.83-1.44c2.67-4.04,4.01-9.42,4.01-16.12v-10.18h13.06v-3.78h2.87v3.78h13.62v2.14h-26.95ZM121.47,44.41h-17v1.44h-2.72v-12.85h8.96v-11.23h2.79v3.85h12.69v2.16h-12.69v5.22h10.63v12.74h-2.67v-1.34ZM104.47,42.37h17v-7.31h-17v7.31Z"/>
    <path d="M134.97,43.95l-2.51.58c-1.21-3.62-1.81-7.69-1.81-12.2,0-4.92.8-10.23,2.41-15.93l2.71.47c-1.62,5.33-2.43,10.53-2.43,15.59,0,4.16.54,7.99,1.63,11.48ZM154.76,43.44c-1.98.26-3.91.39-5.78.39-2.09,0-3.92-.2-5.51-.59s-2.81-1.02-3.67-1.89-1.28-1.99-1.28-3.38c0-2.02.88-4.14,2.64-6.38l2.04,1.09c-1.44,1.58-2.22,3.35-2.34,5.31,0,.91.42,1.64,1.26,2.18s1.76.88,2.78,1.03,2.43.23,4.25.24c1.97-.01,3.84-.16,5.62-.44v2.44ZM154.55,21.03c-1.63-.04-3.15-.05-4.57-.05s-4.76.16-10.18.49c0-.53-.04-1.3-.11-2.32,5.1-.35,8.89-.53,11.37-.53,1.64,0,2.77.02,3.39.05l.09,2.36Z"/>
    <path d="M164.41,43.54l-.33-2.48c5.58-.21,9.55-1.23,11.91-3.05s3.55-4.43,3.56-7.81c0-2.65-.59-4.72-1.76-6.21s-2.77-2.25-4.8-2.26c-1.29,0-3.42.28-6.4.83s-5.78,1.18-8.4,1.88l-.28-2.6c7.93-1.68,13.05-2.51,15.35-2.51,2.87.01,5.12.96,6.74,2.83s2.44,4.54,2.44,7.98c0,4.2-1.32,7.42-3.96,9.68s-7.33,3.5-14.05,3.74Z"/>
    <path d="M201.47,35.02c-.4,1.11-.97,2.41-1.71,3.9s-1.56,2.77-2.46,3.84-1.83,1.61-2.79,1.61c-.59,0-1.11-.14-1.56-.42s-1.05-.83-1.79-1.63-1.42-1.92-2.03-3.33-1.06-2.89-1.33-4.44-.4-3.05-.4-4.52c0-1.31.11-3.17.33-5.57.28-2.52.5-4.36.65-5.52h2.78c-.14,1.05-.38,2.89-.7,5.52-.25,2.34-.37,4.2-.37,5.55.04,2.04.24,3.87.62,5.5s1,3.03,1.86,4.19,1.49,1.75,1.86,1.75c.61,0,1.37-.78,2.29-2.33s1.78-3.3,2.6-5.23l2.16,1.12ZM213.32,39.83l-2.64.09v-.32c-.09-3.49-.53-6.84-1.31-10.05s-2.11-6.16-4-8.86l2.23-1.37c3.81,5.32,5.71,12.16,5.71,20.51Z"/>
    <path d="M240.62,21.08h-7.88c-1.9,1.41-3.49,3.2-4.77,5.39s-1.98,4.6-2.08,7.23c.06,2.1.52,3.8,1.37,5.12s1.98,2.28,3.38,2.91,3.24.94,5.54.94c.54,0,1.09-.02,1.65-.05l-.14,2.6h-.07c-1.75,0-3.2-.04-4.35-.11s-2.37-.4-3.65-.98-2.33-1.3-3.16-2.19-1.54-1.99-2.12-3.31-.91-2.9-.98-4.73c0-2.36.57-4.69,1.71-7s2.66-4.27,4.54-5.88h-13.55v-2.34h24.56v2.41Z"/>
  </g>
</svg>