<?xml version="1.0" encoding="UTF-8"?>
<svg id="_レイヤー_1" data-name="レイヤー_1" xmlns="http://www.w3.org/2000/svg" version="1.1" viewBox="0 0 300 60">
  <!-- Generator: Adobe Illustrator 30.0.0, SVG Export Plug-In . SVG Version: 2.1.1 Build 123)  -->
  <path d="M59.46,43.89l.65-2.16c1.42.54,2.92.81,4.5.81,2.19,0,3.91-.51,5.17-1.53s1.88-2.48,1.88-4.38c0-2.07-.84-3.65-2.53-4.73s-4.04-1.62-7.05-1.62c-2.02,0-3.97.22-5.85.67v10.56c0,2.25-1.71,3.38-5.12,3.38-1.96,0-3.68-.58-5.16-1.73s-2.22-2.62-2.22-4.39c0-1.95.92-3.77,2.77-5.48s4.15-3.02,6.92-3.94v-6.05h-8.75v-2.3h8.68v-5.7h2.88v5.43h9.18v2.3h-9.18v5.55c1.91-.41,3.84-.62,5.8-.62,3.52,0,6.47.75,8.86,2.25s3.59,3.59,3.59,6.26-.83,4.76-2.5,6.26-3.93,2.25-6.79,2.25c-2.39,0-4.29-.37-5.71-1.11ZM53.49,31.79c-2.02.8-3.71,1.81-5.08,3.04s-2.06,2.5-2.06,3.8.5,2.19,1.5,2.84,2.12.98,3.35.98c1.52,0,2.29-.54,2.29-1.62v-9.04ZM76.53,24.16l-2.27,1.62c-2.3-2.85-5.17-5.46-8.61-7.84l1.85-1.63c1.45.93,3.07,2.16,4.84,3.7s3.17,2.93,4.19,4.16Z"/>
  <path d="M83.23,26.94v18.98h-2.64V15.27h12.59v11.67h-9.95ZM83.23,20.26h7.38v-3.16h-7.38v3.16ZM90.61,21.91h-7.38v3.18h7.38v-3.18ZM90.88,40.42v.98h-2.65v-11.09h14.13v10.11h-11.48ZM90.88,38.4h8.84v-6.13h-8.84v6.13ZM107.43,45.56h-4.15l-.4-2.46h3.41c.42,0,.78-.13,1.07-.4s.44-.55.44-.85v-14.91h-10.18v-11.67h12.85v27.69c0,.7-.31,1.31-.93,1.83s-1.32.77-2.11.77ZM100.19,20.26h7.61v-3.16h-7.61v3.16ZM107.8,21.91h-7.61v3.18h7.61v-3.18Z"/>
  <path d="M131.39,34.39c-.4,1.11-1.03,2.47-1.89,4.08s-1.74,2.94-2.64,4.02-1.83,1.61-2.79,1.61c-.59,0-1.11-.14-1.56-.42s-1.05-.83-1.79-1.63-1.42-1.92-2.03-3.33-1.07-2.89-1.36-4.44-.44-3.05-.44-4.52c0-1.31.13-3.17.4-5.57.28-2.52.43-4.36.46-5.52h2.95c-.05,1.05-.23,2.89-.56,5.52-.29,2.34-.44,4.2-.44,5.55,0,2.04.21,3.87.64,5.49s1.05,3.02,1.86,4.19,1.41,1.76,1.78,1.76c.61,0,1.43-.83,2.46-2.5s1.96-3.47,2.78-5.41l2.16,1.12ZM147.48,39.56l-2.95.09v-.32c0-3.47-.56-6.84-1.69-10.12s-2.73-6.21-4.82-8.79l2.16-1.37c4.78,5.47,7.21,12.31,7.29,20.51Z"/>
  <path d="M183.97,28.24c-2.5-1.03-5.32-2.72-8.48-5.08s-5.79-4.8-7.88-7.33c-1.63,2.25-3.98,4.57-7.07,6.97s-6.2,4.28-9.35,5.65l-1.18-1.93c3.05-1.46,6.04-3.37,8.97-5.71s5.12-4.59,6.57-6.73h3.88c1.85,2.4,4.33,4.74,7.44,7s5.96,3.91,8.53,4.91l-1.44,2.25ZM177.45,43.85h-19.83v1.76h-2.76v-13.69h25.37v13.59h-2.78v-1.65ZM157.62,41.72h19.83v-7.68h-19.83v7.68ZM176.89,27.1h-18.32v-2.13h18.32v2.13Z"/>
  <path d="M194.43,32.23c-1.3,1.95-3.3,4.82-6.01,8.63l-1.85-1.79c1.37-1.65,2.83-3.66,4.38-6.03s2.71-4.39,3.48-6.08v-4.06h-6.49v-2.3h6.49v-5.71h2.62v10.23c1.88-1.79,3.91-3.22,6.11-4.27s4.32-1.58,6.35-1.58c3.06.01,5.59,1.08,7.59,3.21s3.01,4.76,3.01,7.9c-.01,3.96-1.22,7.19-3.61,9.69s-6.47,4-12.21,4.51l-.58-2.37c9.04-.6,13.55-4.52,13.55-11.76,0-2.32-.72-4.37-2.15-6.15s-3.23-2.68-5.37-2.69c-2.16,0-4.37.61-6.64,1.83s-4.29,2.83-6.06,4.83l.02,16.72h-2.64v-12.74Z"/>
  <path d="M252.21,44.54c-2.88.12-5.75.18-8.61.18-4.21,0-7.17-.14-8.89-.41s-3.05-.93-4.01-1.97-1.43-2.63-1.43-4.77v-11.5h-5.47v-2.3h5.47v-7.37h2.78v7.37h15.8c0-2.96-.11-5.5-.32-7.59l2.72-.21c.22,2.14.33,4.55.33,7.21v.6h5.68v2.3h-5.71c-.06,1.84-.17,3.72-.34,5.63s-.6,3.19-1.28,3.83-1.61.96-2.77.96c-1.76,0-4.03-1-6.8-3.01l1.04-2.04c2.36,1.58,4.17,2.37,5.43,2.37.82,0,1.34-.5,1.56-1.49s.37-3.08.44-6.27h-15.79v11.46c0,1.45.33,2.51.99,3.17s1.74,1.08,3.23,1.27,4.28.27,8.37.27c3.01,0,5.54-.09,7.58-.28v2.58Z"/>
</svg>