<?xml version="1.0" encoding="UTF-8"?>
<svg id="_レイヤー_1" data-name="レイヤー_1" xmlns="http://www.w3.org/2000/svg" version="1.1" viewBox="0 0 595.28 841.89">
  <!-- Generator: Adobe Illustrator 30.0.0, SVG Export Plug-In . SVG Version: 2.1.1 Build 123)  -->
  <defs>
    <style>
      .st0 {
        fill: #202223;
      }

      .st1 {
        fill: #fdf6f9;
      }

      .st2 {
        fill: #e4e2e0;
      }

      .st3 {
        fill: #fafafb;
      }

      .st4 {
        fill: #242931;
      }

      .st5 {
        fill: #8a2146;
      }

      .st6 {
        fill: #c8809e;
      }

      .st7 {
        fill: #fefefe;
      }

      .st8 {
        fill: #fdfcfc;
      }

      .st9 {
        fill: #1a1719;
      }

      .st10 {
        fill: #671a36;
      }

      .st11 {
        fill: #191718;
      }

      .st12 {
        fill: #fff;
      }

      .st13 {
        fill: #fdfdfd;
      }

      .st14 {
        fill: #dddedf;
      }

      .st15 {
        fill: #100e0f;
      }

      .st16 {
        fill: #686b70;
      }

      .st17 {
        fill: #eeefee;
      }

      .st18 {
        fill: #b95c80;
      }

      .st19 {
        fill: #746d73;
      }

      .st20 {
        fill: #b27f98;
      }

      .st21 {
        fill: #b98a99;
      }

      .st22 {
        fill: #e6daeb;
      }

      .st23 {
        fill: #e4c4d7;
      }

      .st24 {
        fill: #f3c8d6;
      }

      .st25 {
        fill: #121011;
      }

      .st26 {
        fill: #414549;
      }

      .st27 {
        fill: #9f999a;
      }

      .st28 {
        fill: #c683a2;
      }

      .st29 {
        fill: #f6f5f5;
      }

      .st30 {
        fill: #ea9bc1;
      }

      .st31 {
        fill: #f0e0ed;
      }

      .st32 {
        fill: #fffffe;
      }

      .st33 {
        fill: #22262c;
      }

      .st34 {
        fill: #fcfbfb;
      }

      .st35 {
        fill: #fcfcfc;
      }

      .st36 {
        fill: #ca9eb4;
      }

      .st37 {
        fill: #9d3d66;
      }

      .st38 {
        fill: #fcfcfd;
      }

      .st39 {
        fill: #85696f;
      }

      .st40 {
        fill: #d7d3d5;
      }

      .st41 {
        fill: #827d89;
      }

      .st42 {
        fill: #231815;
        font-family: FreestyleScript-Regular, 'Freestyle Script';
        font-size: 72px;
      }

      .st43 {
        fill: #6c7673;
      }

      .st44 {
        fill: #c3bfc0;
      }

      .st45 {
        fill: #ca5e86;
      }

      .st46 {
        fill: #151313;
      }
    </style>
  </defs>
  <g id="_生成オブジェクト" data-name="生成オブジェクト">
    <text/>
    <g>
      <path class="st11" d="M367.97,124.87c27.27-.43,54.61.45,81.78,2.22,2.93,1.21,15.35,48.59,16.67,54.89,12.54,59.93,10.68,110.13-38,152.22-29.91,25.87-37.67,23.4-41.56,68.22-1.91,22.09-3.41,101.26,5.33,118.67,10.26,20.42,41.07,16.01,58.44,22,5.83,2.01,7.38,5.69,1.33,8.89-22.45,11.89-112.96,10.03-136.89,0-23.96-10.04,20.84-13.83,26.22-15.11,31.88-7.58,31.08-26.58,32.67-55.78,1.35-24.92,1.41-54.15.44-79.11-1.83-47.54-6.14-39.64-37.56-66.89-15.01-13.02-27.11-28.38-35.11-46.67-7.03,18.06-18.98,33.02-33.33,45.78-13.44,11.94-29.31,18.29-34.44,37.11-7.07,25.9-6.62,113.25-.89,140,7.07,33.02,35.85,24.37,59.33,32.22,11.08,3.7-.8,9.1-5.78,10.67-28.17,8.85-96.14,8.96-124.89,1.78-4.42-1.11-20.08-6.13-9.78-11.56,7.04-3.71,31.45-4.67,41.78-8,26.31-8.48,23.94-36.05,24.67-59.33.83-26.89,3.27-97.86-12.89-118.22-6.91-8.71-22.76-17.4-31.78-25.56-61.98-56.01-43.95-133.93-20.22-204.22,1.67-1.68,37.38-2.77,42.44-2.89,29.19-.71,58.44.35,87.56,1.78,1.54.48,4.82,11.67,5.56,14,4.48,14.18,7.12,28.96,10.89,43.33,4.62-19.82,10.02-39.58,18.22-58.22,16.55-1.08,33.19-1.96,49.78-2.22Z"/>
      <path class="st12" d="M190.42,236.87c-5.09-.3-10.22-.53-15.33-.44-.57-.25-1.01-3.06-1.11-3.78-1.34-9.97.67-32.02,1.78-42.67,1.21-11.58,4.16-22.91,5.56-34.44l-3.78,17.11c-3.22,20.85-6.79,41.96-4,63.11l-27.11.44c.53-29.01,5.2-57.71,11.11-86,.19-.91,1.17-2.18.89-3.33-.91.38-1.04,1.96-1.33,2.89-7.14,22.43-13.93,48.76-16,72.22-.22,2.51.3,14.84,0,15.56-.34.81-3.04.95-3.56,2-.33.15-1.62.29-1.78.67-.24,35.63,15.1,67.61,41.56,90.89,16.26,14.3,30.38,19.23,52.44,16.89,31.11-3.31,59.18-36.9,69.56-64.67l.89.44c-6.8,28.53-42.5,64.99-72.22,67.33-26.81,2.11-49.61-13.81-66.44-33.11-45.24-51.86-25.19-129.04-6-187.78,42.27-2.81,85.13-3.27,127.33.22.48.88-7.11,1.91-7.78,2-12.88,1.67-29.15,2.35-42.22,2.67-25.74.63-51.59-.95-77.11-3.78.4.87,1.95.49,2.22,1.33.22.68-4.67,11.12-5.33,13.33-7.06,23.5-11.26,48.09-11.78,72.67,4.46-28.95,9.16-58.45,18.22-86.22,40.92,4.6,82.8,5.18,123.56-.89,4,11.73,7.73,24.06,10.44,36.22,1.38,6.18,4.59,18.28,4.89,24,.4,7.64-3.65,20.85-4.44,29.33-.78,8.33-1.1,16.97-.44,25.33l-48.22-6c-18.13-1.5-36.28-2.48-54.44-3.56Z"/>
      <path class="st12" d="M373.97,500.87h.44c.1,3.26-.04,10.11-.89,13.11s-2.61,3.04-3.11,4c-1.68,3.22-3.21,6.55-4.89,9.78,5.68,4.79,13.7,3.63,20.67,3.78l6-1.56c-5.88,3.29-16.47,3.25-22.89,1.11-1.53-.51-4.18-3.15-4.44-3.11s-2.65,3.23-4,4c-14.27,8.13-34.56,6.44-46.22,12-3.28,1.57-1.66,2.68.89,4,9.13,4.71,39.56,5.99,50.67,6.22,19.59.42,39.2-.93,58.67-2.67-9.11,2.31-19.66,2.33-28.89,4.44l16.67-.67-15.78,2c15.33-.9,34.22-1.18,48.89-5.78,2.25-.71,10.41-2.96,6.67-5.78-12.16,3.68-24.68,5.16-37.33,6.22-30.54,2.55-61.3,1.36-91.56-3.11l-10.22-3.11c7.86,1.19,15.62,3.5,23.56,4.44,18.67,2.23,37.3.38,56-.44-4.34-1.07-9.31-.02-13.33-2.22,5.75-.22,11.61-.28,17.33-.89,3-.32,7.19-2.06,9.78-2.22,7.44-.48,16.04,2.96,24,.44h-9.78c1.99-1.76,4.37-.9,6.67-1.78-11.08-4.57-26.36-6.18-33.33-16.89,8.16,8.84,20.61,11.74,32,14.22,4.28.93,40.74,3.61,23.11,10.67-18.29,7.32-67.86,9.3-87.56,6.67-.46-.06-4.19-.32-3.56-1.33l32.44,1.33-2-1.11,1.11-1.11c-20,.91-41.98.63-61.78-2.67-3.34-.56-19.83-3.24-18.44-7.78,1.06-3.46,32.22-7.16,37.56-8.67,18.58-5.23,24.65-17.06,26.89-35.56Z"/>
      <path class="st12" d="M392.86,359.54c2.57,2.01-1.66,7.21-2.44,10-8.69,30.98-7.84,87.05-6.67,120,.35,9.76,2.89,21.26,3.11,29.78.03,1.08.43,3.82-1.56,2.89-.35-.16,1.42-5.87-.44-7.56-.4,1.73,1.08,7.48-2.67,6.67-3.1-.67.9-8.11,1.11-10.89.43-5.58-1.17-12.42-.44-18.22-.67,2.37-.29,16.27-3.33,16.67-.74.1-1.08-.77-1.56-1.11l.44-134.67c.55-2.01,1.86-5.7,4.67-4.67,3.31,1.22.19,18.02.89,21.33.34-7.65,3.71-16.67,1.56-23.78,3.01-1.93,7.22-2.04,7.33-6.44Z"/>
      <path class="st9" d="M157.53,150.21c-5.91,28.29-10.58,56.99-11.11,86l27.11-.44c-2.79-21.15.78-42.26,4-63.11l3.78-17.11c-1.4,11.54-4.35,22.86-5.56,34.44-1.11,10.65-3.12,32.7-1.78,42.67.1.72.54,3.53,1.11,3.78,5.12-.09,10.24.14,15.33.44l-1.11,1.78-2.89.89v.89c-2.11-.39-4.13-1.4-6.22-1.78-3.89-.7-7.99-1.83-12-1.78-1.58.02-4.83-.31-4.44,1.78-7.14-.8-19.68-2.06-26.22.89.52-1.05,3.22-1.19,3.56-2,.3-.72-.22-13.05,0-15.56,2.07-23.47,8.86-49.79,16-72.22l.44.44Z"/>
      <path class="st12" d="M225.31,361.32c2.61-.15,7.47.69,8.22,3.78.63,2.58-3.13,17.93-3.56,22.22-3.55,35.81-3.17,81.31-.89,117.33.31,4.86,2.91,9.91.22,14.44-2-1.6-1.28-2.89-4.67-3.33,4.3-1.4,1.2-7.66,2.44-11.33l2.44,13.11c-.88-10.06-1.9-20.12-2.22-30.22-1.03-32.59-1.71-69.39.44-101.78.29-4.31,3.24-16.78,2.22-20-1.15-3.66-10.22-2.32-12.89-.89l2.89-2c1.6-.17,3.81-1.25,5.33-1.33Z"/>
      <path class="st7" d="M217.31,376.43l2.44,14c1.72,34.09,3.53,69.39,2.22,103.56-.3,7.85.61,22.03-5.56,26.89l2.89-18c1.06-31.83,1.69-63.7.89-95.56l-2.89-30.89Z"/>
      <path class="st5" d="M215.75,245.32c-1.14-.2-1.24-1.31-1.33-1.33v-1.56c.48-.22,2.3-1.53,2.44-1.56,3.12-.61,27.26,2.12,31.11,3.11,1.77.46,3.65,1.31,5.11,2.44-.04,1.64-19.69,1.24-22,1.11-5.08-.29-10.31-1.56-15.33-2.22Z"/>
      <path class="st1" d="M164.2,239.54l.44-.89c27.57,3.4,55.57,13.84,84.22,13.33l44.22-1.11c-27.54,4.4-57.64,2.46-85.11-2-14.58-2.37-29.3-7.3-43.78-9.33Z"/>
      <path class="st13" d="M154.2,273.32c8.75,27.27,27.87,51.64,52.89,65.78-26.07-12.14-47.59-37.17-52.89-65.78Z"/>
      <path class="st34" d="M282.64,550.65c.73-.05,1.49.04,2.22,0-26.08,6.61-55.29,7.29-82.44,5.56,15.18-.5,30.41-.05,45.56-1.11,11.53-.81,23.56-3.63,34.67-4.44Z"/>
      <path class="st29" d="M152.64,550.65c3.67,1.39,10.48,2.86,14.44,3.56,20.39,3.59,41.39,2.74,62,4.22-12.89.93-26.01.44-38.89-.67-8.86-.76-30.71-2.79-37.56-7.11Z"/>
      <path class="st7" d="M239.97,533.76c1.42-.03,3.8.83,3.56,2.67l-27.78.67c5.15-1.15,10.52-.62,15.78-1.11,2.26-.21,7.14-2.2,8.44-2.22Z"/>
      <path class="st38" d="M231.09,516.43l2,6.89c4.26-1.3-.11,2.62-2,3.33-4.69,1.77-12.54.92-16.22-2.89,1.41-.3,3.67,1.41,5.11,1.56,7.82.81,13.94.46,11.11-8.89Z"/>
      <path class="st32" d="M370.64,522.21c2.05.61,4.53,1.68,6.67,1.78,4.04.18,7.81-1.37,11.78-1.11-3.84,4.88-15.31,4.68-18.44-.67Z"/>
      <path class="st24" d="M206.42,240.43h-10.44c-.77,1.05,1.51,1.18,2,1.33v.44c-3.82-.65-7.73-1.08-11.56-1.78v-.89l20,.89Z"/>
      <path class="st10" d="M206.42,240.43l-1.78,2.67c-2.15-.39-4.59-.67-6.67-1.33-.49-.16-2.77-.28-2-1.33h10.44Z"/>
      <path class="st36" d="M163.75,238.65c.29.03.6-.04.89,0l-.44.89c-5.5-.77-11.55-1.64-17.11-1.33-2.82.16-7.42,2.13-9.33,2.22-1.12.05-.34-.42-.22-.89,6.54-2.95,19.08-1.69,26.22-.89Z"/>
      <polygon class="st27" points="163.97 290.21 174.64 310.21 168.2 300.21 163.97 290.21"/>
      <path class="st18" d="M204.64,243.1c2.93.53,7.55.37,9.78.89.09.02.2,1.13,1.33,1.33-6.06-.8-11.8-2.09-17.78-3.11v-.44c2.08.67,4.51.95,6.67,1.33Z"/>
      <path class="st17" d="M392.86,353.32c.49-.04,1.2-.13,1.56.22.32.66-12.97,3.35-14.22,2.22,3.93.07,9.15-2.14,12.67-2.44Z"/>
      <path class="st2" d="M391.09,524.43c1.94,1.25-2.59,2.43-3.11,3.11l-8.22,1.11c3.74-1.6,8.63-.6,11.33-4.22Z"/>
      <path class="st28" d="M180.2,238.65c-3.72-.36-8.79.22-12-1.78,4.01-.06,8.11,1.08,12,1.78Z"/>
      <path class="st8" d="M177.31,265.76c.59.53,2.78,7.18,1.33,7.11-.99-2.14-1.84-4.8-1.33-7.11Z"/>
      <path class="st40" d="M239.09,356.43c.06.93-4.22,5.18-4.67,3.78l4.67-3.78Z"/>
      <path class="st37" d="M268.42,246.65c.61-.04,2.85-.15,2.89.67.02.43-3.28.46-2.89-.67Z"/>
      <path class="st19" d="M360.86,539.98c.33-.22,2.55-.13,2.89.67-2.41-.96-2.73,1.19-2.89,1.11-.35-.17-.37-1.53,0-1.78Z"/>
      <path class="st45" d="M264.86,246.21c.63-.05,1.22-.17,1.11.67-.85.89-1.3,1.7-2.22.44,1.68.06.93-1.1,1.11-1.11Z"/>
      <path class="st41" d="M374.42,500.87h-.44c.12-.99-.26-2.19.22-3.11.37,0,.21,2.58.22,3.11Z"/>
      <path class="st29" d="M152.64,550.65c-.51-.19-1.87-.18-1.78-1.11.85-.39,1.6,1,1.78,1.11Z"/>
      <path class="st23" d="M209.31,241.32c.37-.23,1.14.61,1.11.67-.34.74-2.1-.06-1.11-.67Z"/>
      <path class="st22" d="M214.64,240.43c1.14-.61,1.28.79.44.89-.05,0-.9-.65-.44-.89Z"/>
      <path class="st31" d="M211.09,239.98c.67-.24.98.65.44.89-.65.29-.98-.69-.44-.89Z"/>
      <path class="st20" d="M209.75,239.98c1.11-.15.48.88-.44.89-.45-.23.37-.88.44-.89Z"/>
      <path class="st39" d="M375.09,539.54c.67-.24.98.65.44.89-.65.29-.98-.69-.44-.89Z"/>
      <path class="st6" d="M212.64,241.32s-.39,1.17-.89.67c-.19-.95.79-.57.89-.67Z"/>
      <path class="st30" d="M212.64,241.32s.3-.75.67-.89c.81,1.07-.58.81-.67.89Z"/>
      <path class="st44" d="M426.2,551.1h.44c.88-.07.88.51,0,.44l-.44-.44Z"/>
      <path class="st43" d="M157.53,150.21l-.44-.44c.3-.93.42-2.51,1.33-2.89.28,1.15-.7,2.42-.89,3.33Z"/>
      <g>
        <path class="st12" d="M213.75,522.21c1.05,1.69-3.37,6.08-3.33,6.44,1.08,1.14,2.76,1.99,4.22,2.44,4.1,1.27,19.85.21,21.78-5.33-3.75,4.79-10.32,4.31-15.78,3.78,5.72-.66,11.55-.59,15.33-5.56,6.11,9.99,18.16,13.45,28.89,16,5,1.19,27.54,3.89,29.78,5.78,4.33,3.66-6.94,6.37-7.33,5.56l6.67-4c-5.31,1.26-11.44,3.86-17.11,3.33l8.22-2.44c-34.75,7.71-73.1,8.36-108.67,4.22l30.22,1.33c-12.82-1.19-25.99-1.03-38.44-4.67-.03-.9,12.61-3.55,14-3.78,2.29-.38,13.87-.78,14.44-1.56.08-.1-1.14-.71-.67-1.11,10.58,4.23,22.17,3.76,33.33,4.89l-49.78-.44c15.99-.23,31.99,2.32,48,1.33,4.2-.26,21.1-1.85,22.89-5.56,2.8-5.81-9.05-8.72-10.89-13.11-6.71,8.2-20.62,4.15-30.22,5.78-5.76.97-13.33,4.79-19.56,6.22-10.77,2.49-21.96,3.72-32.89,5.33,0,3.16,4.67,2.2,6.22,4-4.19-.79-9.09-.87-12.22-4.22.04-2.88,26.88-5.7,30.44-6.44,12.22-2.55,26.84-5.59,32.44-18.22Z"/>
        <path class="st0" d="M235.75,529.32c-4.97,4.71-21.03,5.23-26.22.22,2.43.58,5.28,2.59,7.78,2.89s12.08-.54,14.67-1.33c.73-.23,3.17-1.36,3.78-1.78Z"/>
        <path class="st14" d="M230.2,551.1c2.34-.21,5.32.71,7.78.67l-11.78.67c1.58.09,3.77-1.31,4-1.33Z"/>
        <polygon class="st26" points="237.75 528.43 236.42 531.1 234.42 531.32 237.75 528.43"/>
        <path class="st0" d="M235.75,529.32c.11-.08.66-1.97,1.56-2.22.59,1.09-1.03,1.73-1.56,2.22Z"/>
        <path class="st4" d="M221.75,531.54c.37.04,1.51-.16,1.56.22.03.28-2.01.53-1.56-.22Z"/>
      </g>
      <g>
        <path class="st3" d="M248.42,539.54c4.2.78-3.29,7.51-6,5.56,1.11.54,4.98-3.24,2.89-3.33-9.65,5.11-20.76,5.64-31.33,3.78,6.01-.72,12.47.07,18.44-1.11,4.8-.95,6.54-2.71,11.56-3.56.87-.15,4.22-1.38,4.44-1.33Z"/>
        <path class="st33" d="M248.86,540.43c.92.22-1.08,2.01-1.33,2.22-.92-.22,1.08-2.01,1.33-2.22Z"/>
      </g>
      <g>
        <path class="st12" d="M348.42,127.1c33.26-.97,66.82,0,100,1.78,20.75,64.63,42.17,145.51-15.11,197.78-33.24,30.33-65.63,32.73-100,2.22-59.39-52.71-36.71-133.96-14.22-199.11,3.33,1.96,7.73,2.28,11.56,2.67,38.62,3.94,79.25,3.6,117.56-2-42.5,4.34-86.32,5.99-128.44-.89-.1-1.44,26.32-2.38,28.67-2.44Z"/>
        <path class="st25" d="M446.64,132.87c11.83,33.86,19.96,70.04,17.33,106.22-1.03-36.05-8.29-71.52-17.33-106.22Z"/>
        <path class="st46" d="M321.31,132.43c-8.59,31.53-16.8,63.33-20,96-.23-32.69,8.01-65.84,20-96Z"/>
        <g>
          <path class="st11" d="M305.75,234.65c15.61-1.7,37.44,4.92,53.33,7.11,19.18,2.65,38.8,4.44,58.22,4,3.21-.07,22.53-2.36,23.56-1.78.59.34.12,1.53-.44,1.78-1.62.71-17.43,1.97-20.44,2.22-4.12.34-8.8.73-12.89.89-9.54.37-19.16-.32-28.67-.22,20.82,2.93,41.89,1.05,62.67-1.33.09,28.09-10.98,54.7-29.56,75.33,23.39-19.52,39.74-47.09,41.56-78l14.22-4.44c-.24-.97-12.71,4.05-14.22,2.22l15.78-3.33c.75,38.79-17.85,73.45-48.89,96-60.21,43.75-120.22-28.31-122.89-86.89-.44-9.61-1.89-12.41,8.67-13.56Z"/>
          <text/>
          <path class="st35" d="M316.86,282.65c7.82,20.87,22.55,38.62,40.89,51.11-19.89-10.5-34.8-29.59-40.89-51.11Z"/>
          <path class="st21" d="M360.64,245.76l.44-.89c7.6,1.18,15.26,1.71,22.89,2.67l19.33-.22c-14.17,1.59-28.61.24-42.67-1.56Z"/>
        </g>
      </g>
      <g>
        <path class="st12" d="M395.97,533.32c2.05-.02,10.74,5.37,7.11,8.89-4.38,4.25-33.77,3.69-40.44,2.67-3.3-.51-7.26-1.79-10.44-2.89,2.27-1.22,16.05,4.4,16.89,2.67l-4.22-2.44c9.01-.06,20.42,2.54,28-3.11-1.3.2-6.76,2.5-7.56,2.22s.28-1.1.22-1.11c-3.93-.93-8.4-1.72-12.67-1.56-1.53,1.31-1.08,2.98,1.11,3.33-2.38,1.43-10.27-2.56-6.44-4.67,1.78-.98,15.1-.42,18.67-.89,2.26-.29,9.26-3.11,9.78-3.11Z"/>
        <g>
          <path class="st15" d="M402.64,538.21c.82.74,1.16,1.37.67,2.44-1.89,4.13-23.42,4.51-28,4,9.79-.88,19.06-.74,27.33-6.44Z"/>
          <path class="st16" d="M396.86,542.21c1.56.2-.74,1.49-1.11.67l1.11-.67Z"/>
        </g>
      </g>
    </g>
  </g>
  <text/>
  <text class="st42" transform="translate(259.9 624.82)"><tspan x="0" y="0">CIT</tspan></text>
  <text/>
</svg>