<?xml version="1.0" encoding="UTF-8"?>
<svg id="_レイヤー_1" data-name="レイヤー_1" xmlns="http://www.w3.org/2000/svg" version="1.1" viewBox="0 0 300 60">
  <!-- Generator: Adobe Illustrator 30.0.0, SVG Export Plug-In . SVG Version: 2.1.1 Build 123)  -->
  <text/>
  <g>
    <path d="M28.32,45.03v-2.32h26.47v-6.01h-25.8v-2.29h25.8v-5.73h-26.14v-2.16h13.08v-11.87h2.78v11.87h13.08v19.76h-2.8v-1.25h-26.47ZM33.38,24.87c-.93-2.13-2.3-4.65-4.11-7.56l2.46-1.07c1.5,2.32,2.91,4.83,4.24,7.52l-2.58,1.11ZM52.33,25.01l-2.43-.98c1.73-2.34,3.28-5.02,4.64-8.03l2.81.98c-2.18,3.87-3.86,6.54-5.03,8.03Z"/>
    <path d="M68.11,20.51v6.79c0,4.18-.42,7.87-1.27,11.07s-2.02,5.77-3.52,7.74l-1.83-1.44c2.67-4.04,4.01-9.42,4.01-16.12v-10.18h13.06v-3.78h2.87v3.78h13.62v2.14h-26.95ZM90.4,44.84h-17v1.44h-2.72v-12.85h8.96v-11.23h2.79v3.85h12.69v2.16h-12.69v5.22h10.63v12.74h-2.67v-1.34ZM73.4,42.8h17v-7.31h-17v7.31Z"/>
    <path d="M116.07,45.1l-.69-2.37c3.77-.34,7-1.44,9.68-3.29s4.02-4.62,4.02-8.3c0-3.28-1.08-5.82-3.24-7.61s-5.18-2.74-9.04-2.85c-.13,6.3-1.26,11.57-3.39,15.79s-4.8,6.33-8.02,6.33c-1.99,0-3.56-.85-4.7-2.54s-1.71-3.76-1.71-6.2c0-4.02,1.73-7.63,5.2-10.84s7.58-4.81,12.32-4.81c4.46,0,8.14,1.12,11.04,3.35s4.34,5.28,4.34,9.15c0,4.41-1.46,7.78-4.38,10.11s-6.73,3.69-11.43,4.08ZM114.03,20.91c-3.4.52-6.32,2.05-8.77,4.61s-3.67,5.45-3.67,8.67c0,1.71.36,3.16,1.07,4.35s1.71,1.78,2.99,1.78c2.19,0,4.1-2.05,5.73-6.14s2.51-8.52,2.65-13.28Z"/>
    <path d="M166.02,44.01c-3.5.54-7.45.81-11.83.81h-2.07c-5.55,0-9.31-.56-11.28-1.69s-2.94-2.74-2.94-4.83c0-2.55,1.2-4.88,3.6-6.98l1.92,1.42c-1.9,1.86-2.85,3.65-2.85,5.36,0,1.49.85,2.56,2.56,3.22s5.18.98,10.43.98c4.08,0,8.09-.29,12.02-.88l.44,2.58ZM164.79,21.67c-.6.13-1.28.34-2.05.62s-1.4.55-1.91.79-2.45,1.22-5.84,2.93l-1.25-1.76c1.17-.63,2.96-1.56,5.36-2.78l-.07-.35c-4.2.07-10.49.26-18.88.58l-.14-2.46c4.63-.18,10.97-.26,19.04-.26,2.57,0,4.27.02,5.12.05l.62,2.64Z"/>
    <path d="M181.86,15.69c0,1.31-.06,2.88-.18,4.71h12.64v2.34h-12.83c-.42,4.51-1.42,8.97-2.99,13.38s-3.16,7.59-4.78,9.56l-2.09-1.37c1.7-2.41,3.23-5.65,4.58-9.71s2.19-8.01,2.5-11.86h-6.4v-2.34h6.56c.07-1.51.11-3.08.11-4.71h2.88ZM202.95,44.38c-1.86.32-4.38.47-7.56.47-2.68,0-4.79-.11-6.32-.33s-2.73-.73-3.61-1.53-1.32-1.77-1.32-2.92c0-1.66.67-3.24,2-4.73l1.97,1.11c-.86,1.15-1.28,2.26-1.28,3.32-.01.73.38,1.35,1.19,1.88s3.05.79,6.74.79c2.81,0,5.5-.16,8.05-.47l.14,2.41ZM201.92,26.1l-.04,2.3c-.57-.02-1.1-.04-1.58-.04-4.2,0-8.81.24-13.83.72l-.18-2.32c4.58-.48,9.11-.72,13.59-.72.79,0,1.46.02,2.04.05ZM197.66,19.61l-2.02.9c-.83-1.9-1.68-3.54-2.55-4.94l1.92-.86c1.01,1.58,1.89,3.22,2.65,4.9ZM202.78,18.52l-2.02.83c-.77-1.82-1.61-3.43-2.51-4.85l1.86-.9c.81,1.25,1.7,2.89,2.67,4.92Z"/>
    <path d="M214.05,32.94c-1.3,1.95-3.3,4.82-6.01,8.63l-1.85-1.79c1.37-1.65,2.83-3.66,4.38-6.03s2.71-4.39,3.48-6.08v-4.06h-6.49v-2.3h6.49v-5.71h2.62v10.23c1.88-1.79,3.91-3.22,6.11-4.27s4.32-1.58,6.35-1.58c3.06.01,5.59,1.08,7.59,3.21s3.01,4.76,3.01,7.9c-.01,3.96-1.22,7.19-3.61,9.69s-6.47,4-12.21,4.51l-.58-2.37c9.04-.6,13.55-4.52,13.55-11.76,0-2.32-.72-4.37-2.15-6.15s-3.23-2.68-5.37-2.69c-2.16,0-4.37.61-6.64,1.83s-4.29,2.83-6.06,4.83l.02,16.72h-2.64v-12.74Z"/>
    <path d="M253.93,46.4l-.65-2.3c5.04-.4,8.89-1.52,11.57-3.36s4.01-5.23,4.01-10.16c-.01-3.46-.55-6.1-1.61-7.94s-2.48-2.75-4.25-2.75c-1.68.01-3.4.56-5.18,1.64s-3.28,2.91-4.53,5.48-1.86,5.74-1.85,9.51l-2.5.16c-.43-2.7-.65-5.72-.65-9.09,0-4.3.34-8.22,1.02-11.76l2.78.25c-.79,4.24-1.25,8.14-1.41,11.71h.25c.86-3.19,2.43-5.69,4.72-7.51s4.71-2.74,7.25-2.75c2.71,0,4.85,1.14,6.42,3.41s2.36,5.54,2.36,9.79c0,5.48-1.5,9.39-4.5,11.71s-7.42,3.64-13.25,3.97Z"/>
  </g>
</svg>